# xmcd
#
# Track frame offsets:
#	150
#	12591
#	27673
#	46999
#	69044
#	85334
#	99891
#	121608
#	142927
#	161974
#
# Disc length: 2362 seconds
#
# Revision: 0
# Processed by: cddbd v1.5.1PL2 Copyright (c) Steve Scherf et al.
# Submitted via: dBpowerAMP V4.0
#
DISCID=7809380a
DTITLE=Wisler - Vollmond in Dschambul
DYEAR=2000
DGENRE=Blues
TTITLE0=Vollmond in Dschambul
TTITLE1=Wen i heichume
TTITLE2=Freiheit
TTITLE3=Gift
TTITLE4=Unbehage
TTITLE5=Bendice, alma mia
TTITLE6=Chind ohni Name
TTITLE7=Under üs
TTITLE8=Rainy Sunday Blues
TTITLE9=Vivienne
EXTD=
EXTT0=
EXTT1=
EXTT2=
EXTT3=
EXTT4=
EXTT5=
EXTT6=
EXTT7=
EXTT8=
EXTT9=
PLAYORDER=
